{"title":"Rush 2012 Audio Cleaned SCamRip MPEG-PS (DDD) - Hindi","uid":7762474,"size":711266308,"categoryP":"video","categoryS":"movies","magnet":"?xt=urn:btih:d84e9565ab652980ee2fe89e6373c12216d131ec&amp;dn=Rush+2012+Audio+Cleaned+SCamRip+MPEG-PS+%28DDD%29+-+Hindi&amp;tr=udp%3A%2F%2Ftracker.openbittorrent.com%3A80&amp;tr=udp%3A%2F%2Fopen.demonii.com%3A1337&amp;tr=udp%3A%2F%2Ftracker.coppersurfer.tk%3A6969&amp;tr=udp%3A%2F%2Fexodus.desync.com%3A6969","seeders":0,"leechers":0,"uploader":"SJonam","files":1,"time":1351271839,"description":" &lt;a href=&quot;http://desibbrg.org/images/66952052392581364616.gif&quot; rel=&quot;nofollow&quot; target=&quot;_NEW&quot;&gt;http://desibbrg.org/images/66952052392581364616.gif&lt;/a&gt;\n &lt;a href=&quot;\nhttp://desibbrg.org/images/55369993765008587720.png&quot; rel=&quot;nofollow&quot; target=&quot;_NEW&quot;&gt;\nhttp://desibbrg.org/images/55369993765008587720.png&lt;/a&gt;\n &lt;a href=&quot;\nhttp://desibbrg.org/images/19853509255921057465.jpg&quot; rel=&quot;nofollow&quot; target=&quot;_NEW&quot;&gt;\nhttp://desibbrg.org/images/19853509255921057465.jpg&lt;/a&gt;\n\n\nInfo - \nGeneral\nFormat : MPEG-PS\nFile size : 678 MiB\nDuration : 1h 52mn\nOverall bit rate mode : Variable\nOverall bit rate : 839 Kbps\nVideo #224\nID : 224 (0xE0)\nFormat : MPEG Video\nFormat version : Version 1\nFormat settings, BVOP : Yes\nFormat settings, Matrix : Custom\nDuration : 1h 52mn\nBit rate mode : Variable\nBit rate : 763 Kbps\nWidth : 352 pixels\nHeight : 288 pixels\nDisplay aspect ratio : 4:3\nFrame rate : 25.000 fps\nStandard : PAL\nColor space : YUV\nBit depth : 8 bits\nScan type : Progressive\nCompression mode : Lossy\nBits/(Pixel*Frame) : 0.301\nStream size : 613 MiB (90%)\n\nAudio #192\nID : 192 (0xC0)\nFormat : MPEG Audio\nFormat version : Version 1\nFormat profile : Layer 2\nDuration : 1h 52mn\nBit rate mode : Constant\nBit rate : 64.0 Kbps\nChannel(s) : 2 channels\nSampling rate : 48.0 KHz\nCompression mode : Lossy\nStream size : 51.7 MiB (8%)\n\nRipper : Deshi Digital Dhoom\n\nSeeding 24x7... Extreme Seeding...\n\n\nEnjoy!\n","torrent":{"xt":"urn:btih:d84e9565ab652980ee2fe89e6373c12216d131ec","amp;dn":"Rush+2012+Audio+Cleaned+SCamRip+MPEG-PS+%28DDD%29+-+Hindi","amp;tr":["udp%3A%2F%2Ftracker.openbittorrent.com%3A80","udp%3A%2F%2Fopen.demonii.com%3A1337","udp%3A%2F%2Ftracker.coppersurfer.tk%3A6969","udp%3A%2F%2Fexodus.desync.com%3A6969"],"infoHash":"d84e9565ab652980ee2fe89e6373c12216d131ec","infoHashBuffer":{"type":"Buffer","data":[216,78,149,101,171,101,41,128,238,47,232,158,99,115,193,34,22,209,49,236]},"announce":[],"urlList":[]}}